# xmcd
#
# Track frame offsets: 
#        150
#        17034
#        28803
#        41838
#        54753
#        65715
#        77995
#        96957
#        109793
#        122686
#        133229
#        144507
#        158726
#        169960
#        179555
#        194002
#        208205
#        220938
#
# Disc length: 3109 seconds
#
# Revision: 0
# Processed by: cddbd v1.5.2PL0 Copyright (c) Steve Scherf et al.
# Submitted via: ExactAudioCopy v0.99pb5
#
DISCID=170c2312
DTITLE=Otis Redding - Groovin Time [CD2)
DYEAR=2009
DGENRE=
TTITLE0=Try A Little Tenderness
TTITLE1=Shake
TTITLE2=My Girl
TTITLE3=Tennessee Waltz
TTITLE4=Sweet Lorene
TTITLE5=Satisfaction (I Can't Get No)
TTITLE6=Change Gonna Come
TTITLE7=Knock On Wood
TTITLE8=I Love You More Than Words Can Say
TTITLE9=Open The Door
TTITLE10=Day Tripper
TTITLE11=My Lover's Prayer
TTITLE12=Love Have Mercy
TTITLE13=Respect
TTITLE14=I've Been Loving You Too Long
TTITLE15=Wonderful World
TTITLE16=The Glory Of Love
TTITLE17=(Sittin' On) The Dock Of The Bay
EXTD=
EXTT0=
EXTT1=
EXTT2=
EXTT3=
EXTT4=
EXTT5=
EXTT6=
EXTT7=
EXTT8=
EXTT9=
EXTT10=
EXTT11=
EXTT12=
EXTT13=
EXTT14=
EXTT15=
EXTT16=
EXTT17=
PLAYORDER=
